<?xml version="1.0" standalone="no"?>
<!DOCTYPE svg PUBLIC "-//W3C//DTD SVG 20010904//EN"
 "http://www.w3.org/TR/2001/REC-SVG-20010904/DTD/svg10.dtd">
<svg version="1.0" xmlns="http://www.w3.org/2000/svg"
 width="500.000000pt" height="500.000000pt" viewBox="0 0 500.000000 500.000000"
 preserveAspectRatio="xMidYMid meet">
<metadata>
Created by potrace 1.14, written by Peter Selinger 2001-2017
</metadata>
<g transform="translate(0.000000,500.000000) scale(0.100000,-0.100000)"
fill="#000000" stroke="none">
<path d="M2310 4809 c-470 -59 -872 -284 -1155 -644 -183 -234 -315 -537 -350
-805 -3 -25 -8 -63 -12 -85 -3 -22 -5 -105 -5 -185 3 -374 121 -724 348 -1025
111 -148 247 -270 519 -465 128 -92 122 -87 216 -180 96 -96 139 -156 200
-283 47 -98 48 -108 38 -257 -4 -58 -10 -150 -14 -205 -3 -55 -8 -116 -10
-135 -9 -82 -19 -260 -19 -328 1 -65 4 -77 31 -114 59 -81 68 -83 398 -83 261
0 295 2 330 18 71 33 117 115 110 193 -2 21 -6 84 -10 139 -3 55 -8 120 -10
145 -2 25 -7 84 -10 133 -3 48 -8 126 -12 175 -15 200 -12 229 34 322 91 187
193 298 427 468 88 64 199 149 246 188 265 220 451 515 554 874 66 231 71 580
12 825 -72 298 -224 579 -430 793 -244 255 -553 424 -908 498 -134 28 -391 39
-518 23z"/>
</g>
</svg>
